# xmcd
#
# Track frame offsets:
#	150
#	20775
#	40533
#	52976
#	74536
#	88741
#	107772
#	129008
#	150317
#
# Disc length: 2266 seconds
#
# Revision: 0
# Processed by: cddbd v1.5.2PL0 Copyright (c) Steve Scherf et al.
# Submitted via: audiograbber 1.83.01
#
DISCID=6808d809
DTITLE=Pale Morning Dunn - Daylight Staging
DYEAR=2007
DGENRE=
TTITLE0=I Drive An Old Van
TTITLE1=Carnage
TTITLE2=Santa Maria
TTITLE3=There Are No Pictures Of You
TTITLE4=Fog
TTITLE5=Held By Trees
TTITLE6=Rugged Little Hands
TTITLE7=Goodnight Moon
TTITLE8=Yellow Rose Of Texas
EXTD=
EXTT0=
EXTT1=
EXTT2=
EXTT3=
EXTT4=
EXTT5=
EXTT6=
EXTT7=
EXTT8=
PLAYORDER=
